<svg width="44" height="41" viewBox="0 0 44 41" fill="none" xmlns="http://www.w3.org/2000/svg">
<path d="M31.719 40.2431L19.5271 27.9155L7.33523 40.2431L0 32.8289L12.1919 20.4987L0 8.17382L7.33523 0.756958L19.5271 13.0845L31.7164 0.756958L39.0516 8.17382L26.8597 20.4987L39.0516 32.8289L31.719 40.2431ZM19.5271 26.7815L31.719 39.109L37.93 32.8289L25.7381 20.4987L37.93 8.17382L31.7164 1.89102L19.5271 14.2186L7.33523 1.89102L1.12422 8.17382L13.3135 20.4987L1.12158 32.8289L7.33523 39.109L19.5271 26.7815Z" fill="white"/>
<path d="M35.6868 41L23.495 28.6725L11.3031 41L3.21924 32.8289L15.4111 20.4987L3.22188 8.17379L11.3031 0L23.495 12.3275L35.6842 0L43.768 8.17379L31.5761 20.4987L43.768 32.8289L35.6868 41ZM5.83802 32.8289L11.3031 38.3521L23.495 26.0245L35.6868 38.3521L41.1492 32.8289L28.9574 20.4987L41.1492 8.17379L35.6842 2.64792L23.495 14.9781L11.3031 2.64792L5.84067 8.17379L18.0299 20.4987L5.83802 32.8289Z" fill="#FF8500"/>
</svg>
