<svg width="15" height="15" viewBox="0 0 15 15" fill="none" xmlns="http://www.w3.org/2000/svg">
<path d="M7.5 4.57031C6.92056 4.57031 6.35414 4.74214 5.87235 5.06405C5.39057 5.38597 5.01506 5.84353 4.79332 6.37886C4.57158 6.91419 4.51356 7.50325 4.62661 8.07155C4.73965 8.63986 5.01868 9.16188 5.4284 9.5716C5.83812 9.98133 6.36014 10.2604 6.92845 10.3734C7.49675 10.4864 8.08581 10.4284 8.62114 10.2067C9.15647 9.98494 9.61403 9.60943 9.93595 9.12765C10.2579 8.64586 10.4297 8.07944 10.4297 7.5C10.4297 6.723 10.121 5.97782 9.5716 5.4284C9.02218 4.87898 8.277 4.57031 7.5 4.57031ZM7.5 9.72656C7.05963 9.72656 6.62915 9.59598 6.26299 9.35132C5.89683 9.10666 5.61145 8.75892 5.44293 8.35207C5.2744 7.94522 5.23031 7.49753 5.31622 7.06562C5.40213 6.63371 5.61419 6.23697 5.92558 5.92558C6.23697 5.61419 6.63371 5.40213 7.06562 5.31622C7.49753 5.23031 7.94522 5.2744 8.35207 5.44292C8.75892 5.61145 9.10666 5.89683 9.35132 6.26299C9.59598 6.62914 9.72656 7.05963 9.72656 7.5C9.72656 8.09052 9.49198 8.65686 9.07442 9.07442C8.65686 9.49198 8.09052 9.72656 7.5 9.72656Z" fill="white"/>
<path d="M14.1797 5.625H13.1332C13.1088 5.62482 13.0851 5.61705 13.0654 5.60276C13.0456 5.58848 13.0308 5.5684 13.023 5.54531C12.9549 5.35188 12.8767 5.16217 12.7887 4.97695C12.7777 4.9551 12.7738 4.93035 12.7776 4.90619C12.7814 4.88202 12.7926 4.85964 12.8098 4.84219L13.5492 4.10156C13.6254 4.02539 13.6858 3.93495 13.7271 3.83542C13.7683 3.73589 13.7895 3.62922 13.7895 3.52148C13.7895 3.41375 13.7683 3.30708 13.7271 3.20755C13.6858 3.10801 13.6254 3.01758 13.5492 2.94141L12.0574 1.45078C11.9812 1.3746 11.8908 1.31417 11.7913 1.27294C11.6918 1.23171 11.5851 1.21049 11.4773 1.21049C11.3696 1.21049 11.2629 1.23171 11.1634 1.27294C11.0639 1.31417 10.9734 1.3746 10.8973 1.45078L10.1578 2.19023C10.1404 2.20738 10.118 2.21863 10.0938 2.22241C10.0696 2.22619 10.0449 2.22232 10.023 2.21133C9.83785 2.12326 9.64813 2.04503 9.45469 1.97695C9.4316 1.96916 9.41152 1.95436 9.39724 1.93461C9.38295 1.91487 9.37518 1.89116 9.375 1.8668V0.820312C9.375 0.602752 9.28857 0.394102 9.13474 0.240264C8.9809 0.0864255 8.77225 0 8.55469 0H6.44531C6.22775 0 6.0191 0.0864255 5.86526 0.240264C5.71143 0.394102 5.625 0.602752 5.625 0.820312V1.8668C5.62482 1.89116 5.61705 1.91487 5.60276 1.93461C5.58848 1.95436 5.5684 1.96916 5.54531 1.97695C5.35188 2.04506 5.16217 2.12329 4.97695 2.21133C4.9551 2.22232 4.93035 2.22619 4.90619 2.22241C4.88202 2.21863 4.85964 2.20738 4.84219 2.19023L4.10156 1.45078C4.02539 1.3746 3.93495 1.31417 3.83542 1.27294C3.73589 1.23171 3.62922 1.21049 3.52148 1.21049C3.41375 1.21049 3.30708 1.23171 3.20755 1.27294C3.10801 1.31417 3.01758 1.3746 2.94141 1.45078L1.45078 2.94258C1.3746 3.01875 1.31417 3.10919 1.27294 3.20872C1.23171 3.30825 1.21049 3.41492 1.21049 3.52266C1.21049 3.63039 1.23171 3.73707 1.27294 3.8366C1.31417 3.93613 1.3746 4.02656 1.45078 4.10273L2.19023 4.84219C2.20738 4.85964 2.21863 4.88202 2.22241 4.90619C2.22619 4.93035 2.22232 4.9551 2.21133 4.97695C2.12326 5.16215 2.04503 5.35187 1.97695 5.54531C1.96916 5.5684 1.95436 5.58848 1.93461 5.60276C1.91487 5.61705 1.89116 5.62482 1.8668 5.625H0.820312C0.602752 5.625 0.394102 5.71143 0.240264 5.86526C0.0864255 6.0191 0 6.22775 0 6.44531L0 8.55469C0 8.77225 0.0864255 8.9809 0.240264 9.13474C0.394102 9.28857 0.602752 9.375 0.820312 9.375H1.8668C1.89116 9.37518 1.91487 9.38295 1.93461 9.39724C1.95436 9.41152 1.96916 9.4316 1.97695 9.45469C2.04506 9.64812 2.12329 9.83783 2.21133 10.023C2.22232 10.0449 2.22619 10.0696 2.22241 10.0938C2.21863 10.118 2.20738 10.1404 2.19023 10.1578L1.45078 10.8984C1.3746 10.9746 1.31417 11.065 1.27294 11.1646C1.23171 11.2641 1.21049 11.3708 1.21049 11.4785C1.21049 11.5862 1.23171 11.6929 1.27294 11.7925C1.31417 11.892 1.3746 11.9824 1.45078 12.0586L2.94258 13.5504C3.01875 13.6266 3.10919 13.687 3.20872 13.7282C3.30825 13.7695 3.41492 13.7907 3.52266 13.7907C3.63039 13.7907 3.73707 13.7695 3.8366 13.7282C3.93613 13.687 4.02656 13.6266 4.10273 13.5504L4.84219 12.8109C4.85964 12.7938 4.88202 12.7825 4.90619 12.7788C4.93035 12.775 4.9551 12.7789 4.97695 12.7898C5.16215 12.8779 5.35187 12.9561 5.54531 13.0242C5.5684 13.032 5.58848 13.0468 5.60276 13.0666C5.61705 13.0863 5.62482 13.11 5.625 13.1344V14.1797C5.625 14.3972 5.71143 14.6059 5.86526 14.7597C6.0191 14.9136 6.22775 15 6.44531 15H8.55469C8.77225 15 8.9809 14.9136 9.13474 14.7597C9.28857 14.6059 9.375 14.3972 9.375 14.1797V13.1332C9.37518 13.1088 9.38295 13.0851 9.39724 13.0654C9.41152 13.0456 9.4316 13.0308 9.45469 13.023C9.64812 12.9549 9.83783 12.8767 10.023 12.7887C10.0449 12.7777 10.0696 12.7738 10.0938 12.7776C10.118 12.7814 10.1404 12.7926 10.1578 12.8098L10.8984 13.5492C10.9746 13.6254 11.065 13.6858 11.1646 13.7271C11.2641 13.7683 11.3708 13.7895 11.4785 13.7895C11.5862 13.7895 11.6929 13.7683 11.7925 13.7271C11.892 13.6858 11.9824 13.6254 12.0586 13.5492L13.5504 12.0574C13.6266 11.9812 13.687 11.8908 13.7282 11.7913C13.7695 11.6918 13.7907 11.5851 13.7907 11.4773C13.7907 11.3696 13.7695 11.2629 13.7282 11.1634C13.687 11.0639 13.6266 10.9734 13.5504 10.8973L12.8109 10.1578C12.7938 10.1404 12.7825 10.118 12.7788 10.0938C12.775 10.0696 12.7789 10.0449 12.7898 10.023C12.8779 9.83785 12.9561 9.64813 13.0242 9.45469C13.032 9.4316 13.0468 9.41152 13.0666 9.39724C13.0863 9.38295 13.11 9.37518 13.1344 9.375H14.1797C14.3972 9.375 14.6059 9.28857 14.7597 9.13474C14.9136 8.9809 15 8.77225 15 8.55469V6.44531C15 6.22775 14.9136 6.0191 14.7597 5.86526C14.6059 5.71143 14.3972 5.625 14.1797 5.625ZM14.2969 8.55469C14.2969 8.58577 14.2845 8.61557 14.2626 8.63755C14.2406 8.65953 14.2108 8.67188 14.1797 8.67188H13.1332C12.9632 8.67207 12.7975 8.72505 12.659 8.82351C12.5204 8.92197 12.4159 9.06103 12.3598 9.22149C12.2998 9.39139 12.231 9.55802 12.1535 9.7207C12.0793 9.87405 12.0546 10.0467 12.0829 10.2147C12.1113 10.3827 12.1913 10.5377 12.3117 10.6582L13.0512 11.3977C13.073 11.4196 13.0852 11.4493 13.0852 11.4803C13.0852 11.5112 13.073 11.5409 13.0512 11.5629L11.5605 13.0523C11.5386 13.0742 11.5089 13.0864 11.4779 13.0864C11.447 13.0864 11.4173 13.0742 11.3953 13.0523L10.6559 12.3129C10.5354 12.1924 10.3804 12.1125 10.2124 12.0841C10.0444 12.0558 9.8717 12.0804 9.71836 12.1547C9.5553 12.2322 9.38827 12.301 9.21797 12.3609C9.05774 12.4172 8.91892 12.5219 8.82069 12.6604C8.72245 12.7989 8.66964 12.9645 8.66953 13.1344V14.1797C8.66953 14.2108 8.65718 14.2406 8.63521 14.2626C8.61323 14.2845 8.58342 14.2969 8.55234 14.2969H6.44531C6.41423 14.2969 6.38443 14.2845 6.36245 14.2626C6.34047 14.2406 6.32812 14.2108 6.32812 14.1797V13.1332C6.32793 12.9632 6.27495 12.7975 6.17649 12.659C6.07803 12.5204 5.93897 12.4159 5.77852 12.3598C5.60861 12.2998 5.44198 12.231 5.2793 12.1535C5.12595 12.0793 4.95329 12.0546 4.78529 12.0829C4.61729 12.1113 4.46228 12.1913 4.3418 12.3117L3.60234 13.0512C3.58039 13.073 3.55069 13.0852 3.51973 13.0852C3.48877 13.0852 3.45907 13.073 3.43711 13.0512L1.94766 11.5605C1.92583 11.5386 1.91358 11.5089 1.91358 11.4779C1.91358 11.447 1.92583 11.4173 1.94766 11.3953L2.68711 10.6559C2.80757 10.5354 2.88753 10.3804 2.91588 10.2124C2.94423 10.0444 2.91957 9.8717 2.84531 9.71836C2.76783 9.5553 2.69898 9.38827 2.63906 9.21797C2.58245 9.05836 2.47783 8.92019 2.33956 8.82241C2.20129 8.72464 2.03615 8.67205 1.8668 8.67188H0.820312C0.789232 8.67188 0.759425 8.65953 0.737448 8.63755C0.715472 8.61557 0.703125 8.58577 0.703125 8.55469V6.44531C0.703125 6.41423 0.715472 6.38443 0.737448 6.36245C0.759425 6.34047 0.789232 6.32812 0.820312 6.32812H1.8668C2.03677 6.32793 2.20249 6.27495 2.34104 6.17649C2.4796 6.07803 2.58414 5.93897 2.64023 5.77852C2.7002 5.60861 2.76904 5.44198 2.84648 5.2793C2.92074 5.12595 2.9454 4.95329 2.91705 4.78529C2.8887 4.61729 2.80874 4.46228 2.68828 4.3418L1.94883 3.60234C1.927 3.58039 1.91475 3.55069 1.91475 3.51973C1.91475 3.48877 1.927 3.45907 1.94883 3.43711L3.43945 1.94766C3.46141 1.92583 3.49111 1.91358 3.52207 1.91358C3.55303 1.91358 3.58273 1.92583 3.60469 1.94766L4.34414 2.68711C4.46463 2.80757 4.61963 2.88753 4.78763 2.91588C4.95564 2.94423 5.1283 2.91957 5.28164 2.84531C5.4447 2.76783 5.61173 2.69898 5.78203 2.63906C5.94164 2.58245 6.07981 2.47783 6.17759 2.33956C6.27536 2.20129 6.32795 2.03615 6.32812 1.8668V0.820312C6.32812 0.789232 6.34047 0.759425 6.36245 0.737448C6.38443 0.715472 6.41423 0.703125 6.44531 0.703125H8.55469C8.58577 0.703125 8.61557 0.715472 8.63755 0.737448C8.65953 0.759425 8.67188 0.789232 8.67188 0.820312V1.8668C8.67207 2.03677 8.72505 2.20249 8.82351 2.34104C8.92197 2.4796 9.06103 2.58414 9.22149 2.64023C9.39139 2.7002 9.55802 2.76904 9.7207 2.84648C9.87405 2.92074 10.0467 2.9454 10.2147 2.91705C10.3827 2.8887 10.5377 2.80874 10.6582 2.68828L11.3977 1.94883C11.4196 1.927 11.4493 1.91475 11.4803 1.91475C11.5112 1.91475 11.5409 1.927 11.5629 1.94883L13.0547 3.44063C13.0765 3.46258 13.0888 3.49228 13.0888 3.52324C13.0888 3.5542 13.0765 3.5839 13.0547 3.60586L12.3152 4.34531C12.1948 4.4658 12.1148 4.6208 12.0865 4.78881C12.0581 4.95681 12.0828 5.12947 12.157 5.28281C12.2345 5.44587 12.3034 5.6129 12.3633 5.7832C12.4196 5.94344 12.5242 6.08225 12.6627 6.18048C12.8013 6.27872 12.9669 6.33153 13.1367 6.33164H14.1797C14.2108 6.33164 14.2406 6.34399 14.2626 6.36596C14.2845 6.38794 14.2969 6.41775 14.2969 6.44883V8.55469Z" fill="white"/>
</svg>
