<svg width="30" height="24" viewBox="0 0 30 24" fill="none" xmlns="http://www.w3.org/2000/svg">
<path d="M3.55744 4.89591C3.59466 4.52483 3.45422 4.15809 3.17925 3.90831L0.37815 0.507969V0H9.07566L15.7983 14.8571L21.7087 0H30V0.507969L27.6051 2.82185C27.3985 2.98043 27.2962 3.24111 27.3389 3.49911V20.5009C27.2962 20.7589 27.3985 21.0196 27.6051 21.1782L29.9439 23.492V24H18.1792V23.492L20.6022 21.1217C20.8403 20.8818 20.8403 20.8113 20.8403 20.4444V6.70191L14.1037 23.9436H13.1932L5.35013 6.70191V18.2575C5.28478 18.7434 5.44491 19.2324 5.78428 19.5838L8.93559 23.4356V23.9436H0V23.4356L3.15122 19.5838C3.48825 19.2318 3.639 18.7395 3.55744 18.2575V4.89591Z" fill="#252833"/>
</svg>
