<svg width="30" height="24" viewBox="0 0 30 24" fill="none" xmlns="http://www.w3.org/2000/svg">
<path d="M29.3134 2.96679C28.242 3.44185 27.0896 3.76316 25.881 3.90666C27.115 3.16733 28.062 1.9975 28.509 0.601286C27.3543 1.28625 26.0748 1.78315 24.7143 2.05098C23.6242 0.890068 22.0711 0.164551 20.3514 0.164551C17.0518 0.164551 14.3757 2.84067 14.3757 6.14025C14.3757 6.60863 14.4287 7.06453 14.5312 7.50216C9.56488 7.25304 5.16142 4.87417 2.2139 1.25773C1.69962 2.14011 1.4046 3.16733 1.4046 4.26229C1.4046 6.335 2.46034 8.16483 4.0629 9.23617C3.08381 9.20543 2.16176 8.9367 1.35647 8.48793C1.35603 8.51333 1.35603 8.53874 1.35603 8.56369C1.35603 11.4591 3.41671 13.874 6.14987 14.4226C5.64896 14.5599 5.11998 14.6325 4.57584 14.6325C4.18991 14.6325 3.81601 14.5955 3.45147 14.526C4.21174 16.8995 6.41815 18.6273 9.03366 18.6759C6.98814 20.2789 4.41184 21.2339 1.61138 21.2339C1.13008 21.2339 0.65324 21.2059 0.186646 21.1501C2.82979 22.8463 5.97161 23.8352 9.34606 23.8352C20.3375 23.8352 26.3484 14.7297 26.3484 6.83235C26.3484 6.57343 26.3427 6.31539 26.3311 6.05959C27.4996 5.21732 28.5125 4.16514 29.3134 2.96679Z" fill="#252833"/>
</svg>
